<?xml version="1.0" encoding="iso-8859-1"?>
<svg xmlns="http://www.w3.org/2000/svg" xmlns:xlink="http://www.w3.org/1999/xlink" version="1.1" id="Capa_1" x="0px" y="0px" viewBox="0 0 492.068 492.068" style="enable-background:new 0 0 492.068 492.068;" xml:space="preserve" width="512px" height="512px">
<g>
	<path d="M270.77,362.291h-84.234c-7.252,0-13.129,5.878-13.129,13.129c0,7.252,5.878,13.129,13.129,13.129h84.234   c7.252,0,13.129-5.878,13.129-13.129C283.9,368.169,278.022,362.291,270.77,362.291z" fill="#3f51b5"/>
	<path d="M247.413,414.05h-60.878c-7.252,0-13.129,5.878-13.129,13.129c0,7.253,5.878,13.129,13.129,13.129h60.878   c7.253,0,13.129-5.877,13.129-13.129C260.543,419.928,254.666,414.05,247.413,414.05z" fill="#3f51b5"/>
	<path d="M247.413,465.809h-60.878c-7.252,0-13.129,5.878-13.129,13.129c0,7.252,5.878,13.129,13.129,13.129h60.878   c7.253,0,13.129-5.878,13.129-13.129C260.543,471.687,254.666,465.809,247.413,465.809z" fill="#3f51b5"/>
	<path d="M320.241,310.533H212.518c-7.253,0-13.129,5.877-13.129,13.129c0,7.252,5.877,13.129,13.129,13.129h107.722   c7.253,0,13.129-5.878,13.129-13.129C333.37,316.41,327.494,310.533,320.241,310.533z" fill="#3f51b5"/>
	<path d="M346.982,258.784H186.536c-7.252,0-13.129,5.878-13.129,13.129c0,7.253,5.878,13.129,13.129,13.129h160.446   c7.253,0,13.129-5.877,13.129-13.129C360.111,264.662,354.235,258.784,346.982,258.784z" fill="#3f51b5"/>
	<path d="M383.078,207.025H205.256c-7.253,0-13.129,5.878-13.129,13.129c0,7.252,5.877,13.129,13.129,13.129h177.822   c7.252,0,13.129-5.878,13.129-13.129C396.208,212.903,390.33,207.025,383.078,207.025z" fill="#3f51b5"/>
	<path d="M186.536,181.526H353.66c7.252,0,13.129-5.878,13.129-13.129c0-7.253-5.878-13.129-13.129-13.129H186.536   c-7.252,0-13.129,5.877-13.129,13.129C173.406,175.648,179.284,181.526,186.536,181.526z" fill="#3f51b5"/>
	<path d="M453.946,103.507h-248.69c-7.253,0-13.129,5.878-13.129,13.129c0,7.252,5.877,13.129,13.129,13.129h248.69   c7.253,0,13.129-5.878,13.129-13.129C467.076,109.385,461.199,103.507,453.946,103.507z" fill="#3f51b5"/>
	<path d="M396.208,64.889c0-7.253-5.878-13.129-13.129-13.129H111.749c-7.252,0-13.129,5.877-13.129,13.129   c0,7.252,5.878,13.129,13.129,13.129h271.329C390.33,78.018,396.208,72.141,396.208,64.889z" fill="#3f51b5"/>
	<path d="M341.822,13.129C341.822,5.878,335.946,0,328.693,0H38.122C30.87,0,24.993,5.878,24.993,13.129   c0,7.253,5.877,13.129,13.129,13.129h290.571C335.946,26.259,341.822,20.382,341.822,13.129z" fill="#3f51b5"/>
</g>
</svg>
