<?xml version="1.0" standalone="no"?>
<!DOCTYPE svg PUBLIC "-//W3C//DTD SVG 20010904//EN"
 "http://www.w3.org/TR/2001/REC-SVG-20010904/DTD/svg10.dtd">
<svg version="1.0" xmlns="http://www.w3.org/2000/svg"
 width="700.000000pt" height="700.000000pt" viewBox="0 0 700.000000 700.000000"
 preserveAspectRatio="xMidYMid meet">
<metadata>
Created by potrace 1.11, written by Peter Selinger 2001-2013
</metadata>
<g transform="translate(0.000000,700.000000) scale(0.100000,-0.100000)"
fill="#000000" stroke="none">
<path d="M470 6984 c-130 -56 -151 -227 -39 -316 19 -16 49 -31 65 -35 56 -11
4186 -9 4227 3 50 13 100 54 120 97 38 79 8 187 -66 235 l-41 27 -2115 2
c-1865 2 -2120 0 -2151 -13z"/>
<path d="M1536 6253 c-80 -24 -137 -106 -130 -190 4 -55 27 -96 77 -137 l39
-31 1976 -3 c1761 -2 1981 -1 2018 13 156 59 158 274 4 343 -31 14 -246 15
-1989 16 -1509 1 -1963 -2 -1995 -11z"/>
<path d="M2864 5519 c-41 -12 -100 -66 -117 -109 -34 -84 5 -190 86 -232 l42
-22 1800 -1 c990 0 1816 4 1836 8 38 8 92 53 114 97 47 91 -3 214 -105 257
-34 14 -3605 16 -3656 2z"/>
<path d="M2575 4771 c-111 -50 -140 -200 -56 -295 9 -10 34 -27 56 -39 40 -20
51 -20 1265 -20 1074 0 1229 2 1260 15 137 60 155 244 33 328 l-37 25 -1240 2
c-1184 3 -1243 2 -1281 -16z"/>
<path d="M2881 4049 c-174 -36 -199 -275 -36 -350 38 -18 99 -18 1330 -19 914
0 1302 3 1330 11 48 13 106 71 121 120 27 88 -13 181 -96 225 -34 17 -90 18
-1327 19 -710 0 -1305 -3 -1322 -6z"/>
<path d="M2593 3307 c-105 -39 -153 -160 -102 -262 24 -48 88 -94 134 -96 16
-1 548 -2 1180 -3 1216 -2 1197 -3 1252 43 34 28 63 92 63 138 0 88 -48 155
-130 181 -51 16 -2352 15 -2397 -1z"/>
<path d="M3005 2579 c-134 -18 -206 -150 -146 -267 24 -48 61 -78 110 -92 24
-8 301 -10 842 -8 l805 3 42 28 c94 62 110 194 33 281 -9 10 -34 27 -56 39
-39 20 -55 20 -815 21 -426 1 -793 -2 -815 -5z"/>
<path d="M2608 1839 c-79 -21 -129 -82 -136 -164 -8 -92 37 -160 127 -192 25
-8 198 -11 670 -10 580 2 639 4 667 19 118 65 135 233 32 312 -18 13 -51 29
-73 34 -46 12 -1245 13 -1287 1z"/>
<path d="M2606 1103 c-45 -12 -94 -53 -116 -98 -46 -94 -10 -200 85 -249 37
-19 58 -20 489 -21 248 0 469 3 491 8 111 23 176 135 139 240 -19 52 -48 85
-99 108 -37 17 -73 18 -505 18 -256 -1 -474 -4 -484 -6z"/>
<path d="M2619 368 c-127 -22 -190 -170 -119 -282 56 -87 44 -86 585 -86 436
0 473 2 510 19 53 24 83 59 99 112 29 98 -10 183 -104 226 -30 14 -96 16 -482
17 -245 1 -466 -2 -489 -6z"/>
</g>
</svg>
